# xmcd
#
# Track frame offsets:
#	150
#	19059
#	32998
#	48075
#	61284
#	93049
#	105013
#	125892
#	141883
#	156407
#	166394
#	180435
#	194187
#	206246
#	216935
#	229772
#
# Disc length: 3257 seconds
# Revision: 10
# Processed by: cddbd v1.5.2PL0 Copyright (c) Steve Scherf et al.
# Submitted via: dBpowerAMP V12.0
#
DISCID=e30cb710
DTITLE=Various Artist - Essential Blues Piano disc 2
DYEAR=1997
DGENRE=Blues
TTITLE0=Johnnie Johnson - Frances
TTITLE1=Omar Shariff - The Rattler
TTITLE2=Eddie Boyd - Got Lonesome Here
TTITLE3=Piano Red - Atlanta Bounce
TTITLE4=Booker T. Laury - Introduction to the Blues_That's All Right For You
TTITLE5=Fats Domino - The Fat Man
TTITLE6=Memphis Slim - Late Afternoon Blues
TTITLE7=Detroit Junior - Your Family
TTITLE8=Tuts Washington - Arkansas Blues
TTITLE9=Blind John Davis - Bartender's Bounce
TTITLE10="Whistling" Alex Moore - Going Back To Foggy Bottom
TTITLE11=Sunnyland Slim - Johnson Machine Gun Blues
TTITLE12=Katie Webster - C.Q. Boogie
TTITLE13=Lloyd Glenn - Chia Boo
TTITLE14=Hadda Brooks - Swingin' the Boogie
TTITLE15=Little Brother Montgomery - Vicksburg Blues
EXTD=
EXTT0=
EXTT1=
EXTT2=
EXTT3=
EXTT4=
EXTT5=
EXTT6=
EXTT7=
EXTT8=
EXTT9=
EXTT10=
EXTT11=
EXTT12=
EXTT13=
EXTT14=
EXTT15=
PLAYORDER=
